<svg xmlns="http://www.w3.org/2000/svg" data-name="Layer 1" viewBox="0 0 77.07 120" x="0px" y="0px" fill="#ffffff"><title>16</title><path fill="#ffffff" d="M80.91,75.19c1-.67,1.42-1.57.79-4.48a34.94,34.94,0,0,0-1-3.6,16.31,16.31,0,0,1-1-6c0-4.54-2.6-10.25-2.89-10.88l-1-3.25a.66.66,0,0,0-.08-.15c-.42-1.38-1.14-3.3-2.08-3.88-1.51-.95-2.35.35-5.17,2.73s-5.11,2.38-5.11,2.38,4.07-1.4,5.66-4.56c0,0,1.73-2,3.24-2l-.05,0,.56-.05c3.34,1.1,3.88,1,3.88,1s-2.71-1-2.77-1.36c0,0,.58.1,1.5.33A6.27,6.27,0,0,0,78,41.14l-.58-.57A4.2,4.2,0,0,1,75,40.44a19.22,19.22,0,0,1-4-2.31l-1.6-1s1.78.58,1.56-.54c-.3-1.48.38-.78,2-1.31a1.53,1.53,0,0,0,.88-2.19,1.46,1.46,0,0,1,0,2.34c-1.11.75-2.3.63-2.36.82a6.65,6.65,0,0,0,.12,1.27l1.09.82c.64.51,2.62,1.72,3.73,1.65s.54-.74.54-.74,2.68.72,2.31-.82c-.16-.66-4-3.84-4-3.84a32.65,32.65,0,0,1,4,3.08c.19-.1.07-.51-.14-1a6.15,6.15,0,0,0-1.75-2.19c-1.7-1.35-5.2-4.13-5.5-4.23a4.73,4.73,0,0,0-1.19-.1l-1.54-1.17-.58-.43a1.75,1.75,0,0,0-.91-.42l.72-.16a4.75,4.75,0,0,0-3.46-.33,3.46,3.46,0,0,0-1.77,1.41h0a2.6,2.6,0,0,0-.24.46l0,0-.4.92a11,11,0,0,0-2.07,2.85A22.46,22.46,0,0,0,63.08,32a5.21,5.21,0,0,1,1.6-.65c.26.55.52,1.25.88,2l.2-1.36a20.33,20.33,0,0,0,.49,3.43v0a2.87,2.87,0,0,0,.48,1,18.64,18.64,0,0,0,3.89,3.94,6.65,6.65,0,0,0-3.2-.84c-2.82,0-2.95-1.26-4.88,0v1.67s.87,6-1.94,7.47l.87.38c-.91,1-3.17,3.29-5.9,5.68a21.82,21.82,0,0,1-5.17,3.43c-.56-.91-1.11-1.87-1.63-2.91,0,0-2.09.69-2.28,2,0,0,.28.6.85,1.58a5.56,5.56,0,0,1-3.58-1.75A8.62,8.62,0,0,1,42,51.75a5.94,5.94,0,0,0,.76.87c1,.85,1,3.42,1,3.42a29.46,29.46,0,0,0,.56-5.52c0-.39.09-.58.33-.66h0c1.54-.4,1.61-1.66,1.84-2.29S46.9,44.8,48.77,45s2.72-.08,3.82-1.18a2.78,2.78,0,0,0,.67-2.59,4,4,0,0,1,.08,2.63c-.43,1.55-2.91,2.51-3.88,2.34s-1.47.38-1.66,1.38A4.73,4.73,0,0,1,46.61,50h.09l-.74.55a2.76,2.76,0,0,0-1.12,2.16c0,1.3.07,3.6-.31,4.57,0,0,2-2.55,3.28-3.1s1.7,1.17,2.91-1.83c0,0,3.39-2.34,2.86-1.71A8.65,8.65,0,0,1,52,52.32c-.62.43-.46,3-.46,3a11.72,11.72,0,0,0,4.3-3.69c1.32-2,2.81-4.2,2.92-5.34a5.47,5.47,0,0,1-.18,2.77s3.12-2.53,2.78-4.08.69-6.15-1.41-7.43-1.75-2.3-1.79-3a4.55,4.55,0,0,0-.23-.8,4.4,4.4,0,0,0,.93-.81l.07-.11a24,24,0,0,0,1.26-2.74,15.61,15.61,0,0,0,.8-4.32,8.77,8.77,0,0,0-.83-3.63c.34-.24.66-.5,1-.77,1.46-1.26,4.11-4.55,3.63-8C64.46,11,62.66,9,59.46,7.52a5.14,5.14,0,0,0-1.24-.38l-1.74-.31A.69.69,0,0,0,55.92,8c1.37,1.11,4.72,4.48,3.78,6.66s-3.43,2.08-4.09,2a4.65,4.65,0,0,0-.59-.42c-.07-1.28-.39-4-1.78-4.49s-2.94,1.77-3.64,3.16a11.68,11.68,0,0,0-7,2.8c-.8-.31-2.84-1.23-3.08-2.86a5.31,5.31,0,0,1,4.34-6.14.69.69,0,0,0,0-1.35,9.23,9.23,0,0,0-6.74,1.69c-1.73,1.43-2.66,3.64-2.75,6.59,0,.24.25,5.78,5,7.74-.22,1.09-.32,2-.33,2.18a22.12,22.12,0,0,0,1.18,9.58.69.69,0,0,0,1.05.33l1.56-1.13a.65.65,0,0,0,.07-.07l.07-.07c-.19.69-.73,2.37-1.42,2.41-.86.05-2.32,1.31-.9,3.3l.9,1.32s-.06-2.18,1.5-2.91c0,0-1,1.48-.62,2.28.21.43-.38.9-.9,1.57-2.89-.39-6.61,1.61-8.14,4.41a8.82,8.82,0,0,0-1.08,4.74c-.8,1.11-1.72,2.42-2.53,3.6a45.73,45.73,0,0,0-3.64,7.26,43.12,43.12,0,0,0-5.38-2.73c1.19-1.06,1.12-2.83,1.07-4,0-.16,0-.31,0-.44a3,3,0,0,0-1-2.25,4.05,4.05,0,0,0-2.12-.93l-1.1-17.14a2.1,2.1,0,0,0,.54-3.85v-4.3A2.09,2.09,0,0,0,18,23.68l.1-.15a.45.45,0,0,1-.22-.31,1.57,1.57,0,0,1,.51-1c1.38-1.58,1.25-2.59,1-4.43,0-.27-.07-.56-.11-.88C18.9,13.34,15.55,3,15.41,2.57a.67.67,0,0,0-.22-.31A.68.68,0,0,0,14.72,2a.69.69,0,0,0-.74.51c-.11.44-2.76,10.91-2.5,14.84,0,.54,0,1,0,1.42a4.17,4.17,0,0,0,1.41,3.71c.61.57.65.89.65,1a.26.26,0,0,1-.12.2h0l-.16.14a2.09,2.09,0,0,0,0,2.82l.65,4.56-.08.07a2.1,2.1,0,0,0,1.09,3.49l1.13,16.94c-.95.21-1.6,1-2.7,2.51-.92,1.3-.83,3.65.23,6.27A11.74,11.74,0,0,0,17,65.29L19,96.39l.18,0-.53.38a.69.69,0,0,0,.81,1.12l5.61-4.05,5.58-3.67a3.52,3.52,0,0,1,1,1c.14.29.27.6.4.93.71,1.72,1.67,4.08,5,4.94l.17,0a.69.69,0,0,0,.17-1.35C34.73,95,34,93.28,33.32,91.59c-.14-.35-.28-.69-.43-1a5.75,5.75,0,0,0-1.78-1.82l-.05,0a27.69,27.69,0,0,0-3.65-2.16c1-.47,2.37-1.2,3.89-2.13,1.89-1.15,5.08-1.43,6.62-1.5a5.49,5.49,0,0,0,2,5.12.69.69,0,1,0,.92-1c-2.41-2.18-1.44-4.43-1.4-4.52h0v0a.69.69,0,0,0,.05-.25h0a7.75,7.75,0,0,1,1.78-4.8l3.77.64a5.11,5.11,0,0,0,8.58,0l9-.59a40.23,40.23,0,0,1-6.48,4.07l-.06,0-.08,0-.14.1,0,0a5.91,5.91,0,0,1-3.72,1.4C49,83.4,46,86.71,45.81,88.59a2.75,2.75,0,0,0,.77,2.56,2.07,2.07,0,0,0,1.33.43,4.44,4.44,0,0,0,1.36-.25c.71-.23,1.56-.44,2.46-.67,2-.49,4-1,5.05-1.84.85-.68,1.82-1.54,2.45-2.1.15.33.3.68.44,1.07a.69.69,0,0,0,.92.39l6.91-3a7.19,7.19,0,0,1-.72,5.72c-1.91,2.91-4.37,6.42-4.37,6.42h7.7s2.48-6.45,0-10.67c0,0,3.47,3.36,2.14,10.67h7.3s6.61-2.13,5.5-6.4C84.12,87.25,81.62,77.83,80.91,75.19ZM66.71,53.37a12.72,12.72,0,0,0,.59,4.38.67.67,0,0,0,0,.36l.12.25c.12.42.24.83.36,1.22l-1.4,4.5a24.88,24.88,0,0,0-1.64-4.33,5.2,5.2,0,0,0-.93-1.33l2-7.19ZM76.84,77.71a.64.64,0,0,0,0,.07v0a11,11,0,0,1,.56,1.52l-1.33.58c.17-3.53-3.93-6-5.75-7l.33-.41A9,9,0,0,1,76.84,77.71ZM69.4,74c1.44.71,6.11,3.29,5.22,6.58L63,85.62a8.3,8.3,0,0,0-2.87-4.76A92.18,92.18,0,0,0,69.4,74Zm9,3.95-.11-.26,0,0A2.19,2.19,0,0,1,78.41,77.93Zm-8-28.54c1.13-.18,3.18-.54,4.52-.78l.63,2.11,0,.1c0,.06,2.78,5.94,2.78,10.34a17.66,17.66,0,0,0,1.07,6.38,33.83,33.83,0,0,1,1,3.47c.56,2.58.18,2.81-.26,3.08a2.64,2.64,0,0,0-.93.83,6.73,6.73,0,0,1-1.48,1.49,10.32,10.32,0,0,0-6.15-5.09c.78-1.18,1.3-2.19,1.33-2.26a.69.69,0,0,0-1.22-.64A30.49,30.49,0,0,1,70,62.17a3.61,3.61,0,0,0,2.17,1.16h0a.69.69,0,0,0,0-1.37c-1.13-.07-2.68-2.32-3.54-4.07a11.75,11.75,0,0,1-.68-4.39.69.69,0,0,0,0-.43l-1.12-2.85.5-.15A17.25,17.25,0,0,1,70.36,49.39Zm-7.55.27.5.22a5.82,5.82,0,0,0,1.39.41l-2,7.19a13.2,13.2,0,0,0-6.26-1.65l0,0C59.69,53,62.27,50.24,62.81,49.65Zm-8.1,7.54c1,0,5.63-.14,7.93,2l0,0a3.94,3.94,0,0,1,.88,1.18,19.31,19.31,0,0,1,2,6.53l-1.17,3.79c-2-.74-8-3.54-13.23-11.33A21.78,21.78,0,0,0,54.71,57.2Zm-6.48,3.07A36.82,36.82,0,0,0,61.72,72.74l-7.7.43a5.11,5.11,0,0,0-9.25-.11l-2.53-.34c-.37-1.74-1.1-6.72-1.56-9.92a.69.69,0,0,0,.76-1.05,18.49,18.49,0,0,1-1.24-2v0a15.06,15.06,0,0,1-.78-1.75h3.29l0,.05A7.24,7.24,0,0,0,48.23,60.27ZM45.17,44.42c-.63.91-.93,1.25-2.17,1.17h-.13a3.15,3.15,0,0,0-.76.06h0l-.25.07h0a1.16,1.16,0,0,0-.45.27l-.07.06,0-.2h0l.06.14,0-.14h0l-.45-1.33.65.22H42l.32,0h0l.29-.06.07,0,.22-.07h0l.22-.1,0,0,.17-.1,0,0,.19-.14,0,0a9.19,9.19,0,0,1,.91-.67,3.28,3.28,0,0,1,2.31-.41A4.43,4.43,0,0,0,45.17,44.42Zm4.28-6.55c-.59.14-3.84.49-2.74-1.22a5.34,5.34,0,0,1,2.74,0C50.48,37.09,50,37.74,49.46,37.87Zm3.54-2c-.19.5-.73,0-1.44-.55a5.7,5.7,0,0,0-2.1-.87,4.5,4.5,0,0,0-1.17.1h-.07c-.22-.38-1-1.48-2-1.15a1,1,0,0,0,.91.78,1.69,1.69,0,0,1,1.07.38c-1.42.31-1.75-1-2.68,0a6.44,6.44,0,0,1-1,1.53c-.26.2-.85-1.09-1.18-1.89L43.06,34v0a.68.68,0,0,0,0-.15.65.65,0,0,0,0-.1c-.14-.8-.24-1.54-.31-2.21a3.77,3.77,0,0,0,3.45.23c.19.38.31.65.31.65a5.85,5.85,0,0,0,.36-3.8,1,1,0,0,0-.29-.39l3.34-2.54a8.88,8.88,0,0,1,1.18.72,11.87,11.87,0,0,1,1.53,1.56,9.45,9.45,0,0,0-2-.17c-1.43.08-1.59.54-1.59.54-.62,1.59-.19,2.87.27,2s1.63-.93,2.05-1a10.08,10.08,0,0,0,2-.07l.11,0c.07.13.13.25.18.38a34.71,34.71,0,0,1,.19,3.58l-.41,1.17h0C53.32,34.81,53.12,35.58,53,35.9ZM50,16.31a14.91,14.91,0,0,1,1.55.2,11.68,11.68,0,0,0-2.22,4.11.69.69,0,0,0,.38.82,14.05,14.05,0,0,1,5.35,4c-.64.48-1.24.91-1.64,1.18A12.69,12.69,0,0,0,52,25.25c-4.43-3.18-8-1.17-9.53,0a11,11,0,0,1-.5-1.5c1.39-1.64,4.35-2.17,4.38-2.17a.69.69,0,0,0,.54-.48,14.94,14.94,0,0,1,2.67-4.78A3.94,3.94,0,0,1,50,16.31Zm6.15,8.3a15.15,15.15,0,0,0-5.3-4.16,7.51,7.51,0,0,1,2.35-3.53,5.94,5.94,0,0,1,1.06.48,2.28,2.28,0,0,0-.38.83,3.67,3.67,0,0,0,.91,3,4.07,4.07,0,0,0,2.72,1.89h.24l-.33.34A15.79,15.79,0,0,1,56.11,24.61ZM45.49,27.27a4.22,4.22,0,0,0-1.22-.3,2.81,2.81,0,0,0-1.51.16c0-.2.05-.35.07-.45a6.15,6.15,0,0,1,5.57-1.63Zm.16-7a10.53,10.53,0,0,0-4,1.83c0-.37-.07-.76-.08-1.18a3.59,3.59,0,0,1,.63-1,12.12,12.12,0,0,1,5.39-3.34A15.34,15.34,0,0,0,45.65,20.3ZM58.9,29.73a22.41,22.41,0,0,1-1.13,2.44,3.75,3.75,0,0,1-.71.57,1.3,1.3,0,0,0-1.2.4,5.4,5.4,0,0,1-.62.44A32.93,32.93,0,0,0,55,29.3a.69.69,0,0,0,0-.18,7.35,7.35,0,0,0-.75-1.39,30.68,30.68,0,0,0,4.14-3.32l.86-.89a6.68,6.68,0,0,1,.41,2.28A14.52,14.52,0,0,1,58.9,29.73ZM61,15.25c1-2.27-.88-4.93-2.43-6.61l.35.14c2.75,1.27,4.28,2.9,4.55,4.84.41,3-2.14,5.88-3.16,6.75-1.22,1-2,1.45-2.65,1.37a2.84,2.84,0,0,1-1.77-1.34,2.5,2.5,0,0,1-.67-1.84,1,1,0,0,1,.29-.5A5.06,5.06,0,0,0,61,15.25Zm-8.2-2.19c.33.12.66,1.24.82,2.54A13.31,13.31,0,0,0,51.09,15C51.72,14,52.45,13.06,52.76,13.06Zm-17.05,2.6c.08-2.5.83-4.35,2.24-5.52A6.14,6.14,0,0,1,40.3,9a6.84,6.84,0,0,0-2.15,6.11c.29,2,2.1,3.11,3.3,3.67l-.27.25a5.23,5.23,0,0,0-1,1.54v0A11.75,11.75,0,0,0,39.68,22C35.93,20.34,35.71,15.82,35.71,15.66ZM41.2,33.81a21.06,21.06,0,0,1-.82-8.08c0-.37.11-.93.22-1.57a11.15,11.15,0,0,0,.87,2.29,20.71,20.71,0,0,0,.18,7ZM38.75,47.65a3.9,3.9,0,0,1,.61.18l1.06.2a4.56,4.56,0,0,0,.24,1.27,13.32,13.32,0,0,0,1.09,7.26H39a8.5,8.5,0,0,1,0-5,.69.69,0,0,0,.05-.33Zm-7.86,8c1.82-2.69,4.32-6.07,4.35-6.1a.69.69,0,0,0,.1-.21A4.62,4.62,0,0,1,36.07,48a3.68,3.68,0,0,1,1.3-.4l.32,3.63a10.94,10.94,0,0,0,.47,7.34h0a15.53,15.53,0,0,1-5,7.51,25,25,0,0,0-2.48,2.23c-.93.94-2.56,2.31-4.32,2.4a8.67,8.67,0,0,0,2.18-6.37.69.69,0,0,0-.15-.36,6.38,6.38,0,0,0-1.06-1A46.78,46.78,0,0,1,30.9,55.7ZM19.28,60.34a47.45,47.45,0,0,1,5.82,2.83c-.21,5-2.5,5.93-3.28,6.09l-2.09-1.93ZM26.42,64a5.85,5.85,0,0,1,.73.64A6.56,6.56,0,0,1,23.65,71L23,70.32C24.25,69.73,26,68.18,26.42,64Zm-12-38.18a.68.68,0,0,0-.19-.17.72.72,0,0,1-.16-.4.73.73,0,0,1,.71-.76l1.7-.06h0a.73.73,0,0,1,0,1.47l-1.7.06A.76.76,0,0,1,14.46,25.86ZM18,17.94c.22,1.71.28,2.23-.69,3.35a3,3,0,0,0-.84,1.8h-.15L15.6,7.81A73,73,0,0,1,17.93,17C18,17.37,18,17.67,18,17.94Zm-5.13.82c0-.43,0-.91-.05-1.5-.14-2.08.63-6.29,1.35-9.63L15,23.14h0a3.16,3.16,0,0,0-1.06-1.66C12.93,20.6,12.93,20.1,12.91,18.76Zm1.85,8.6h.16l1.7-.06.16,0v3.26l-1.48.05h-.09Zm.09,4.85a.73.73,0,0,1,.51-.23l1.7-.06h0a.73.73,0,0,1,0,1.47l-1.7.06a.73.73,0,0,1-.56-1.23ZM14.49,55c1.54-2.18,1.7-2.14,3-1.9h.17a3.52,3.52,0,0,1,2.25.64A1.66,1.66,0,0,1,20.42,55c0,.15,0,.31,0,.48,0,1,.1,2.36-.66,3s-1.84.54-3.52.1a.69.69,0,0,0-.84.49.67.67,0,0,0,0,.31,3,3,0,0,1-.69.21C14,57.62,13.9,55.85,14.49,55Zm.79,5.87a6.35,6.35,0,0,0,1.36-.55l.2,2.94A11.5,11.5,0,0,1,15.28,60.88Zm15.3,22.39a44.84,44.84,0,0,1-5.05,2.66.69.69,0,0,0,0,1.26,33.84,33.84,0,0,1,3.95,2.11l-5.15,3.38-2.82,2-1.64-25.4,3.2,3a.69.69,0,0,0,.74.13,8.28,8.28,0,0,0,1-.52,4.65,4.65,0,0,0,1.33.19c1.76,0,3.66-1,5.48-2.82A23.61,23.61,0,0,1,34,67.16,14.61,14.61,0,0,0,35.24,66a38.75,38.75,0,0,0,.84,7.11c.7,3.13-1.82,7.29-3.08,9.12A9.6,9.6,0,0,0,30.58,83.27ZM49.36,79a3.75,3.75,0,1,1,3.75-3.75A3.75,3.75,0,0,1,49.36,79Zm6.56,8.72c-.81.65-2.78,1.14-4.53,1.57-.93.23-1.8.45-2.56.69s-1.18.24-1.41.05-.32-.68-.26-1.35c.1-1.08,2.45-4,5.05-4.18a7.77,7.77,0,0,0,4.21-1.47,7.42,7.42,0,0,1,2.14,2.39C58,86,56.87,87,55.92,87.75Zm1.83-5.41c.35-.19.75-.43,1.19-.7.22.16,2.61,2,2.78,4.55l-1,.44A11,11,0,0,0,57.75,82.34Z" transform="translate(-11.47 -2)"/><path fill="#ffffff" d="M87.87,45c.13-.27-.67-1-.67-1-1.06-.75-5.26-3.33-5.64-3.76s-1.66-2.08-1.66-2.08a6.14,6.14,0,0,1,0,1.34,1.72,1.72,0,0,1-2.27.6s6.65,4.87,7.39,5.32a2.6,2.6,0,0,0,1.29.43l-1.1-1.24A9.81,9.81,0,0,0,87.18,46a3.48,3.48,0,0,0,1.26,0C88.83,46.12,87.85,45,87.87,45Z" transform="translate(-11.47 -2)"/><text x="0" y="111" fill="#000000" font-size="5px" font-weight="bold" font-family="'Helvetica Neue', Helvetica, Arial-Unicode, Arial, Sans-serif"></text><text x="0" y="116" fill="#000000" font-size="5px" font-weight="bold" font-family="'Helvetica Neue', Helvetica, Arial-Unicode, Arial, Sans-serif"></text></svg>