<svg xmlns="http://www.w3.org/2000/svg" data-name="Layer 1" viewBox="0 0 77.71 120" x="0px" y="0px"><title>16</title><path d="M88.27,44.91l-.07-.08c0-.27-.25-.68-.92-1.25-.41-.29-1.28-.85-2.19-1.43-1.25-.8-3.13-2-3.37-2.25s-1.47-1.74-2-2.32a2.37,2.37,0,0,0-.28-1.11,6.76,6.76,0,0,0-1.91-2.39c-5.26-4.19-5.54-4.28-5.69-4.33a4.22,4.22,0,0,0-1.18-.13l-1.4-1.06-.41-.3-.14-.69a.55.55,0,0,0-.32-.39,5.07,5.07,0,0,0-3.88,0,4,4,0,0,0-2.35,2.22.54.54,0,0,0,0,.13l-.29.67a10.67,10.67,0,0,0-2.13,3,.55.55,0,0,0,.76.68,21.72,21.72,0,0,0,2.58-1.43,3.11,3.11,0,0,1,1-.45c.33.63.69,1.39,1,2l.22.47c0,.05,0,.1,0,.15a3.46,3.46,0,0,0,.7,2.18A25,25,0,0,0,67.93,39a7.21,7.21,0,0,0-.81-.06,12,12,0,0,1-2.62-.32,5.31,5.31,0,0,0-3.32,0A3,3,0,0,0,59.93,37c-1.55-.94-1.54-1.61-1.52-2.2,0-.1,0-.2,0-.29A4.7,4.7,0,0,0,58.3,33l.15-.16.06-.09A24.74,24.74,0,0,0,59.76,30a15.54,15.54,0,0,0,.8-4.29,8.76,8.76,0,0,0-.87-3.68,13,13,0,0,0,1.07-.83c1.45-1.24,4.07-4.49,3.59-7.89C64,10.94,62.25,9,59.08,7.53a5,5,0,0,0-1.21-.37l-1.74-.31a.55.55,0,0,0-.45,1c1.4,1.14,4.81,4.58,3.83,6.84-1,2.41-3.68,2.16-4.29,2.07a4.56,4.56,0,0,0-.66-.47c-.06-1.23-.35-4-1.7-4.46s-2.92,2-3.52,3.18a11.5,11.5,0,0,0-7.08,2.83c-.77-.28-3-1.23-3.25-3a5.46,5.46,0,0,1,4.46-6.31.55.55,0,0,0,0-1.09,9.12,9.12,0,0,0-6.65,1.66c-1.71,1.41-2.62,3.59-2.71,6.5,0,.06.25,5.79,5.06,7.68a22.43,22.43,0,0,0-.36,2.29,22,22,0,0,0,1.17,9.54.55.55,0,0,0,.36.34l.16,0a.55.55,0,0,0,.32-.1l1.09-.79a3.55,3.55,0,0,1-.77,1.5,2.28,2.28,0,0,0-1.8,1.29,2.75,2.75,0,0,0,.47,2.87l.91,1.33a.55.55,0,0,0,.13.13l-.17.22c-2.34-.45-6.56,1.49-8.16,4.44a9.18,9.18,0,0,0-1.06,5.88c-.24.33-.78,1.08-2,2.83a46.44,46.44,0,0,0-3.69,7.4A43.06,43.06,0,0,0,20,59.52l.08-.06c1.25-1,1.17-2.81,1.12-4,0-.16,0-.31,0-.45a2.88,2.88,0,0,0-.91-2.16,3.54,3.54,0,0,0-1.46-.77L17.71,34.25a2,2,0,0,0-.13-3.38V26.43a1.94,1.94,0,0,0,.23-2.27.54.54,0,0,0-.11-.49l-.23-.24c-.31-.31-.45-.45.37-1.4,1.34-1.54,1.22-2.53,1-4.33,0-.27-.07-.56-.11-.89-.4-3.55-3.76-13.89-3.9-14.33a.54.54,0,0,0-.19-.26A.54.54,0,0,0,14.26,2a.55.55,0,0,0-.59.41c-.11.44-2.77,10.92-2.5,14.84,0,.55,0,1,0,1.43a4.07,4.07,0,0,0,1.37,3.62c.64.6.7,1,.7,1.08a.4.4,0,0,1-.17.3h0l-.15.13a2,2,0,0,0,0,2.68l.67,4.69-.12.11a2,2,0,0,0,.1,2.8,2,2,0,0,0,.31.24l1.18,17.71A7.14,7.14,0,0,0,13,54.31c-.89,1.27-.8,3.57.24,6.16a12.85,12.85,0,0,0,2.52,4,.54.54,0,0,0,.12.09L18,97.11a.55.55,0,0,0,.55.52h0a.55.55,0,0,0,.51-.59L16.73,60.15h1.55l2.33,36.73a.55.55,0,0,0,1.1-.07L21.65,96l2.95-2.13,5.67-3.73a3.87,3.87,0,0,1,1.1,1.15c.14.29.27.61.4.94.7,1.7,1.65,4,4.94,4.87l.14,0A.55.55,0,0,0,37,96c-2.75-.71-3.51-2.57-4.19-4.22-.14-.35-.28-.69-.43-1A5.65,5.65,0,0,0,30.62,89l0,0a28.46,28.46,0,0,0-3.91-2.29c1-.47,2.48-1.24,4.14-2.25,2-1.22,5.41-1.48,6.9-1.53a5.4,5.4,0,0,0,1.93,5.18.55.55,0,1,0,.74-.82c-2.49-2.26-1.48-4.6-1.44-4.69h0a.55.55,0,0,0,.05-.22h0c0-3.1,1.44-4,1.86-4.26l4.16.7h.09a.55.55,0,0,0,.21,0,5,5,0,0,0,7.34,0l9.06-.59a35.66,35.66,0,0,1-5.85,3.62l0,0-.05,0-.12.08,0,0a6.06,6.06,0,0,1-3.82,1.45c-3.06.23-6,3.47-6.21,5.32a2.63,2.63,0,0,0,.72,2.44,1.94,1.94,0,0,0,1.25.4,4.31,4.31,0,0,0,1.32-.24c.71-.23,1.57-.45,2.48-.67,2-.49,4-1,5-1.81s2-1.67,2.59-2.23c.18.38.36.8.53,1.25a.55.55,0,0,0,.74.32l6.44-2.81A6.74,6.74,0,0,1,66,90.7c-1.89,2.87-4.35,6.39-4.38,6.43a.55.55,0,0,0,.45.87H79.3l.17,0c.29-.09,7.11-2.35,5.89-7.08-1-3.85-3.74-14.18-4.26-16.14.53-.57.75-1.53.22-3.95a35,35,0,0,0-1-3.6,16.47,16.47,0,0,1-1-6c0-4.55-2.62-10.28-2.89-10.86L76,48.92a.55.55,0,0,0,.43-.68,28.53,28.53,0,0,0-2.09-5.64,6.86,6.86,0,0,0,2.21.4.55.55,0,0,0,.33-.87,6.45,6.45,0,0,1-.55-.92,3.23,3.23,0,0,0,1-.14.53.53,0,0,0,.21-.15c1.55,1.13,6.33,4.62,7,5a3.13,3.13,0,0,0,1.6.52.55.55,0,0,0,.29-.09,1.84,1.84,0,0,0,.38.16,2.66,2.66,0,0,0,.66.07,4.8,4.8,0,0,0,.74-.06.59.59,0,0,0,.54-.23C89,45.88,88.73,45.5,88.27,44.91ZM62.43,31.54a5.52,5.52,0,0,1-.6.38c.36-.45.73-.84.93-1a.55.55,0,0,0,.11-.17l.12-.28a4.65,4.65,0,0,1,.45.43l.09.12A3.77,3.77,0,0,0,62.43,31.54Zm-3.73-1.83a22.77,22.77,0,0,1-1.15,2.48,11.46,11.46,0,0,1-2.82,1.74,31.06,31.06,0,0,0-.18-4.68.55.55,0,0,0,0-.14,7.4,7.4,0,0,0-.82-1.48,31.19,31.19,0,0,0,4.24-3.39l1-1.05a7.08,7.08,0,0,1,.49,2.55A14.51,14.51,0,0,1,58.71,29.71ZM47.51,16.32a15.47,15.47,0,0,0-2.11,4,10.19,10.19,0,0,0-4.26,2A12.66,12.66,0,0,1,41,20.84a3.79,3.79,0,0,1,.68-1.06A12.14,12.14,0,0,1,47.51,16.32Zm2.11-.24a14.91,14.91,0,0,1,1.83.25,11.2,11.2,0,0,0-2.37,4.25.55.55,0,0,0,.3.66,14.18,14.18,0,0,1,5.51,4.18c-.75.57-1.44,1.06-1.87,1.35a12.57,12.57,0,0,0-1.49-1.47,7.42,7.42,0,0,0-9.54.1,10.91,10.91,0,0,1-.6-1.75c1.41-1.73,4.49-2.28,4.52-2.29a.55.55,0,0,0,.44-.39,15.16,15.16,0,0,1,2.73-4.88A4.71,4.71,0,0,1,49.62,16.08Zm4.47,1.19a2.16,2.16,0,0,0-.46.91,3.55,3.55,0,0,0,.89,2.88,4,4,0,0,0,2.63,1.84l.29,0,.28,0-.57.59a16.5,16.5,0,0,1-1.39,1.25,15.06,15.06,0,0,0-5.47-4.3c.4-1.11,1.3-3.06,2.5-3.76A6,6,0,0,1,54.1,17.26ZM42.38,27.78c.08-.17.47-.42,1.47-.32,1.46.16,2.32.71,2.15,3,0,.2-.06.82-1.1,1a3.17,3.17,0,0,1-2.52-.72A14.11,14.11,0,0,1,42.38,27.78Zm3.37-.86A4.26,4.26,0,0,0,44,26.36a3.69,3.69,0,0,0-1.55.11,6.25,6.25,0,0,1,5.95-1.55Zm-3.23,6.42c-.08-.46-.14-.9-.19-1.32a5.15,5.15,0,0,0,2.21.51h.2a3.41,3.41,0,0,0,.77-.13l-.21.88a.55.55,0,0,0,.07.43h0a1.75,1.75,0,0,0-.65.45.48.48,0,0,1-.34.15,2.42,2.42,0,0,1-1.32-.8A.55.55,0,0,0,42.52,33.34Zm4.79.45-.06.07h0c-.25,0-.59-.3-.81-.57l.51-2.09h0a2.19,2.19,0,0,0,.16-.66,4.41,4.41,0,0,0-.54-2.84l3-2.29a9,9,0,0,1,1.29.78A11.75,11.75,0,0,1,52,27.23a7.87,7.87,0,0,0-1.67-.11c-1.64.09-2,.67-2.09.92a.55.55,0,0,0,.35.7l.17,0a.55.55,0,0,0,.48-.28,2.12,2.12,0,0,1,1.14-.26,8.12,8.12,0,0,1,2.64.38h0a5.88,5.88,0,0,1,.44.84,32.94,32.94,0,0,1,.19,4C52,33.26,48.37,33,47.31,33.79Zm13.2-18.7c1-2.38-1.16-5.21-2.74-6.83a3.82,3.82,0,0,1,.84.27c2.81,1.3,4.37,3,4.65,5,.42,3-2.18,6-3.22,6.9-1.26,1.08-2.05,1.49-2.76,1.41a3,3,0,0,1-1.87-1.4,2.62,2.62,0,0,1-.7-2,1.12,1.12,0,0,1,.38-.62A5,5,0,0,0,60.51,15.09Zm-8-2.27c.43.16.79,1.51.93,2.88a13.16,13.16,0,0,0-2.87-.65C51.3,13.65,52.17,12.71,52.46,12.82ZM35.18,15.55c.08-2.55.85-4.44,2.3-5.64a6.57,6.57,0,0,1,3-1.34A6.66,6.66,0,0,0,37.9,15c.3,2,2.25,3.15,3.42,3.66l-.41.39A5,5,0,0,0,40,20.48l0,.07a12.16,12.16,0,0,0-.55,1.59C35.42,20.46,35.19,15.73,35.18,15.55ZM40.75,34a21.29,21.29,0,0,1-.88-8.34,20.89,20.89,0,0,1,.35-2.21,11.37,11.37,0,0,0,1,2.92,20.45,20.45,0,0,0,.18,7.14Zm-.06,5.58a1.76,1.76,0,0,1-.38-1.77,1.2,1.2,0,0,1,.87-.67c.86-.05,1.44-1.28,1.76-2.28a2.62,2.62,0,0,0,1.41.55,1.54,1.54,0,0,0,1.15-.49c.24-.25.25-.25.64-.06a2.57,2.57,0,0,0,1.93.21.54.54,0,0,0,.39-.58,21.51,21.51,0,0,1,5.07,0,1.34,1.34,0,0,1,0,.16.55.55,0,0,0,.73.71,24.75,24.75,0,0,0,3.08-1.61,4.56,4.56,0,0,1,0,.71.56.56,0,0,0,0,.09c0,.08,0,.16,0,.24,0,.71,0,1.89,2.05,3.17,1.2.73,1.14,3.16,1.09,4.93a10.23,10.23,0,0,0,.07,2.17c.14.63-.39,1.42-.93,2a3.32,3.32,0,0,0-.34-.5,1.22,1.22,0,0,1-.25-.41.55.55,0,0,0-1.09,0c-.09.93-1.41,2.94-2.58,4.71l-.26.39a10.75,10.75,0,0,1-3.28,3.06,9.14,9.14,0,0,1,.4-2.86A19.43,19.43,0,0,0,53.88,50a.55.55,0,1,0-.85-.71,18.61,18.61,0,0,1-1.54,1.42l0,0c-.56.48-1.11.94-1.43,1.2a.55.55,0,0,0-.16.22c-.64,1.58-.87,1.53-1.25,1.45a2.08,2.08,0,0,0-1.38.09h0a8.53,8.53,0,0,0-2.2,1.8c0-.6,0-1.24,0-1.84,0-.34,0-.66,0-.93a2.2,2.2,0,0,1,.9-1.73l.75-.55a.54.54,0,0,0,.19-.29A5.41,5.41,0,0,0,48,47.65c.19-1,.63-1,1-.94,1.21.21,4-.9,4.52-2.75a4.58,4.58,0,0,0-.12-3,.55.55,0,1,0-1,.47,3.54,3.54,0,0,1,.05,2.25c-.34,1.24-2.56,2.08-3.26,2-1.21-.21-2,.45-2.3,1.82a3.91,3.91,0,0,1-1.25,2.36h0l-.39.29a3.3,3.3,0,0,0-1.34,2.59c0,.28,0,.6,0,1s0,.49,0,.75a5.72,5.72,0,0,0-1.19-2.18c-.67-.59-2.21-2.8-2.12-4.42a1.66,1.66,0,0,1,.72-1.35l0,0,0,0a1.65,1.65,0,0,1,1.19-.23,2.49,2.49,0,0,0,2.67-1.41,3.91,3.91,0,0,1,1.49-1.17.55.55,0,1,0-.42-1,5,5,0,0,0-2,1.57c-.57.83-.72,1-1.69.94a3.36,3.36,0,0,0-1.4.17,6.5,6.5,0,0,1-.23-.8,2.61,2.61,0,0,1,.89-2.34c.43-.5.92-1.06.59-1.72-.16-.33.23-1.22.58-1.73a.55.55,0,0,0-.91-.62c-.2.29-1.13,1.74-.69,2.78ZM65.59,50.91l1,2.46a12.4,12.4,0,0,0,.59,4.4.54.54,0,0,0,0,.31l.12.25c.13.45.25.88.38,1.28l-1.56,5a24.3,24.3,0,0,0-1.76-4.79A5.25,5.25,0,0,0,62.9,58l2.23-7.12h.46Zm2.88,11a29.63,29.63,0,0,0,2.17,7.92l0,.07c-.28.45-.61,1-1,1.49l-.08.11a13.93,13.93,0,0,1-1.06,1.3,24.8,24.8,0,0,1-2.38,2L66,74.41,65.3,71l1.18-3.8,1.79-5.77Zm8.22,15.76a.52.52,0,0,0,0,.08v0a11.17,11.17,0,0,1,.61,1.68l-1.66.72c.37-3.68-4.07-6.3-5.82-7.18.17-.2.33-.41.48-.61A9.18,9.18,0,0,1,76.69,77.72ZM62.61,85.92a8.17,8.17,0,0,0-3-5,90.79,90.79,0,0,0,9.47-7.06c1.36.66,6.39,3.37,5.37,6.87ZM49,70.37a5,5,0,0,0-4.18,2.26l-3.34-.45c-.39-2-1-6.72-1.4-9.65a.55.55,0,0,0,.86-.67,16.5,16.5,0,0,1-2.11-4h3.51a.53.53,0,0,0,.14,0,8.5,8.5,0,0,0,4.27,2.28h.13A42.9,42.9,0,0,0,59.53,72.35l-6.29.35A5,5,0,0,0,49,70.37ZM39.53,48.49a6.86,6.86,0,0,0,.7,2.11,9.92,9.92,0,0,0,1.4,6.13H38.51a9,9,0,0,1,0-5.2.55.55,0,0,0,0-.27l-.27-3.08a3.29,3.29,0,0,1,.49.14l.11,0Zm5.06,9.13.42-.51c.22.39.54.93,1,1.58a7.57,7.57,0,0,1-1.73-.87h0A.55.55,0,0,0,44.59,57.62ZM41.3,52.28A5.87,5.87,0,0,0,42,53c.57.5,1.28,2.78,1.61,4.29A7.27,7.27,0,0,1,41.3,52.28Zm4.49,4a10.71,10.71,0,0,1,1.44-1.31c6.08,11.57,15.23,15.7,17,16.42l.47,2.35C53.35,69.27,46.91,58.3,45.79,56.25Zm8.58.83c1.17-.06,7.34-.18,9,3.24a19.36,19.36,0,0,1,2,6.63l-1,3.26A34.07,34.07,0,0,1,51.12,59.12,17.1,17.1,0,0,0,54.37,57.08Zm7.57.31A14,14,0,0,0,55.75,56l.32-.27c3.3-2.88,5.51-5.24,5.89-5.65l.83.34a6.43,6.43,0,0,0,1.23.4Zm-6.61-2.53c-.52.45-1,.84-1.43,1.18a.54.54,0,0,0-.2.16,15,15,0,0,1-3.23,2,38.34,38.34,0,0,1-2.15-3.56h.06c1,.21,1.62,0,2.41-1.91a22.9,22.9,0,0,0-.13,2.59.55.55,0,0,0,.79.5A12.22,12.22,0,0,0,56,51.94l.26-.39a32.39,32.39,0,0,0,2.36-3.94.51.51,0,0,1,0,.48.55.55,0,0,0,0,.19.51.51,0,0,0,0,.06.54.54,0,0,0,0,.13l0,.06.07.1.05.05,0,0,.08,0,0,0,1.94.79C60.1,50.39,58.11,52.43,55.34,54.86Zm-21.88-8a8.4,8.4,0,0,1,6.61-3.92A3,3,0,0,0,40,44.63a7.6,7.6,0,0,0,.37,1.2,2.72,2.72,0,0,0-.78,1.53l-.4-.08a4.5,4.5,0,0,0-5.29,1.57l-1.43,2A8.36,8.36,0,0,1,33.46,46.84ZM26.72,63a47.77,47.77,0,0,1,3.66-7.39c1.7-2.51,2-2.92,2.05-2.95v0h0l2.28-3.14a3.22,3.22,0,0,1,2.42-1.4l.28,3.12a10.79,10.79,0,0,0,.48,7.35l0,0a15.72,15.72,0,0,1-5.11,7.61,25,25,0,0,0-2.47,2.22c-1,1-2.83,2.53-4.76,2.44A8.46,8.46,0,0,0,28,64.39a.56.56,0,0,0-.12-.29,6.49,6.49,0,0,0-1.13-1ZM19.4,60.45a46,46,0,0,1,5.42,2.68c-.2,5.35-2.72,6.2-3.47,6.33l-1.46-1.35Zm6.48,3.38a6.5,6.5,0,0,1,1,.84,6.72,6.72,0,0,1-3.66,6.51l-.92-.85C23.57,69.83,25.54,68.31,25.88,63.83ZM15,33.54a.87.87,0,1,1-.06-1.75l1.7-.06h0a.87.87,0,0,1,0,1.75Zm-1-7.6a.54.54,0,0,0-.24-.22.87.87,0,0,1,.06-1.12l0,0h0l.07-.07a.87.87,0,0,1,.48-.16l1.7-.06h0a.87.87,0,0,1,.64,1.47l-.09.08h0a.86.86,0,0,1-.51.19h0l-1.7.06A.85.85,0,0,1,13.94,25.93Zm3.8-8.1c.22,1.72.29,2.3-.73,3.47a2.71,2.71,0,0,0-.9,1.85h-.33L15,6.57a83,83,0,0,1,2.68,10.36C17.67,17.26,17.71,17.56,17.74,17.83Zm-5.42.84c0-.43,0-.91-.05-1.49-.16-2.31.81-7.24,1.58-10.71l.83,16.72h-.31a2.91,2.91,0,0,0-1-1.71C12.34,20.58,12.33,20,12.32,18.68Zm1.83,8.47.25,0h.07l1.7-.06a2,2,0,0,0,.31,0v3.56l-1.61.06-.21,0ZM15,34.64l1.6-.06L17.74,51.9c-.24,0-.42,0-.52,0a5.49,5.49,0,0,0-1.05-.1ZM13.92,54.95c.88-1.25,1.33-1.8,1.81-2l2.55.12a2.68,2.68,0,0,1,1.29.59A1.79,1.79,0,0,1,20.13,55c0,.15,0,.31,0,.47,0,1,.1,2.44-.71,3.1s-1.9.58-3.66.13a.55.55,0,0,0-.67.4.54.54,0,0,0,0,.35,3,3,0,0,1-1,.28C13.41,57.71,13.3,55.83,13.92,54.95Zm.71,5.87a4.94,4.94,0,0,0,1-.34l.15,2.31A12.59,12.59,0,0,1,14.63,60.82ZM30.24,83.48a45.05,45.05,0,0,1-5.08,2.68.55.55,0,0,0,0,1,33.31,33.31,0,0,1,4.15,2.24L24,92.92l-2.41,1.74L20,69.71l2.74,2.53a.55.55,0,0,0,.59.1,8.12,8.12,0,0,0,1.06-.54,4.52,4.52,0,0,0,1.35.21c2.26,0,4.28-1.65,5.4-2.79a23.9,23.9,0,0,1,2.36-2.12c.29-.22.56-.46.82-.69a39,39,0,0,0,.84,6.93c.79,3.54-3,8.69-3.58,9.51A8,8,0,0,0,30.24,83.48Zm7.67-1.7a24.07,24.07,0,0,0-4.63.55c1.36-2,3.64-6.06,2.94-9.23a38.82,38.82,0,0,1-.83-7.78,17.12,17.12,0,0,0,3.2-5.25l.09.18c.13,1,1.11,8.78,1.68,11.9a1.49,1.49,0,0,0-1.25,1.15c-.18.81-.3,3.55.06,4.16a1,1,0,0,0,.28.29A5.9,5.9,0,0,0,37.92,81.78Zm6.42-4.25L40.89,77h-.13a1.79,1.79,0,0,1-.63-.06,13,13,0,0,1,.07-3.34c.09-.39.76-.33.76-.33l3.36.45a4.95,4.95,0,0,0-.07,3.2C44.27,77.09,44.3,77.31,44.34,77.53ZM49,79.26a3.9,3.9,0,0,1-3.68-2.64,10.5,10.5,0,0,1,.3-3.18,3.89,3.89,0,0,1,7,.62,7.14,7.14,0,0,1-.7,3.82A3.88,3.88,0,0,1,49,79.26Zm4.46-1.65a5,5,0,0,0,.3-3.76v-.06l7.55-.42A30.14,30.14,0,0,0,65,75l.24.58L63.42,77ZM55.68,88c-.84.67-2.83,1.17-4.59,1.6-.93.23-1.8.45-2.55.69s-1.27.25-1.54,0-.38-.74-.31-1.48c.11-1.12,2.52-4.12,5.2-4.32A7.57,7.57,0,0,0,56.1,83a7.48,7.48,0,0,1,2.33,2.6C57.86,86.1,56.67,87.17,55.68,88Zm1.51-5.56c.42-.22.91-.51,1.45-.85l0,0s2.74,2,2.87,4.79l-1.23.54A10.71,10.71,0,0,0,57.18,82.41Zm22,14.49H72.63c1.05-7.08-2.27-10.4-2.42-10.55a.55.55,0,0,0-.77.79s3.09,3.16,2.06,9.75H63.16c.86-1.23,2.46-3.57,3.79-5.59a7.81,7.81,0,0,0,.73-6.4l10.52-4.6a.55.55,0,0,0,.32-.61,11,11,0,0,0-.67-2,8.61,8.61,0,0,0,2.08-2,1,1,0,0,1,.19-.21c.72,2.71,3.22,12.09,4.15,15.71S79.92,96.65,79.21,96.9Zm-1-35.71a17.59,17.59,0,0,0,1.06,6.35,34.09,34.09,0,0,1,1,3.5c.58,2.69.16,2.94-.33,3.24a2.49,2.49,0,0,0-.89.79,7.19,7.19,0,0,1-1.64,1.62A10.23,10.23,0,0,0,71,71.45,26.83,26.83,0,0,0,72.47,69a.55.55,0,0,0-1-.5l-.13.25a30.85,30.85,0,0,1-1.79-7,3.84,3.84,0,0,0,2.38,1.42h0a.55.55,0,0,0,0-1.1C70.76,62,69.18,59.66,68.34,58c-.52-1.89-.9-3.73-.69-4.5a.55.55,0,0,0,0-.35l-.92-2.36a6.13,6.13,0,0,0,.62-.17,16.88,16.88,0,0,1,2.82-.66c1.19-.19,3.41-.58,4.74-.82l.47,1.56,0,.08C75.42,50.82,78.19,56.74,78.19,61.18Zm-3-13.24c-1.19.21-3.87.69-5.21.9a18,18,0,0,0-3,.7,5.17,5.17,0,0,1-3.76-.18l-3.06-1.25c.73-.73,1.72-2,1.44-3.26a10.08,10.08,0,0,1,0-1.91,18.06,18.06,0,0,0-.1-3.18,4,4,0,0,1,2.83,0,13.06,13.06,0,0,0,2.86.34,8.21,8.21,0,0,1,2.44.43h0a1.92,1.92,0,0,0-.9,1.17c-.15.66-.26,1.1,0,1.42a.68.68,0,0,0,.53.22l.23,0h.08a4.46,4.46,0,0,0,1.65-.82l.24-.15a2.18,2.18,0,0,1,1-.3l.12,0C73.46,42.67,74.58,45.76,75.2,47.94Zm-2.49-7-.16,0a3.27,3.27,0,0,0-1.71.47l-.25.16c-.21.14-.59.39-.87.53l0-.15c.11-.46.81-.7,1.11-.78a.55.55,0,0,0,.13-1,17,17,0,0,1-4.13-4.06,2.35,2.35,0,0,1-.47-1.48,4.48,4.48,0,0,1,.44-2.29.55.55,0,1,0-.9-.64,2.64,2.64,0,0,0-.35.77,11.66,11.66,0,0,0-1.32-2.31,6.14,6.14,0,0,0-.82-.74v0a2.94,2.94,0,0,1,1.48-1.17,4.11,4.11,0,0,1,2.8-.11l.12.61a.55.55,0,0,0,.21.34l2.11,1.59a.53.53,0,0,0,.35.11,4.6,4.6,0,0,1,.95.05c.24.12,1.78,1.28,5.39,4.16a5.68,5.68,0,0,1,1.54,1.89c-.83-.83-2-1.81-3-2.66a.55.55,0,0,0-.71.85,29.89,29.89,0,0,1,3.78,3.56c0,.13,0,.19,0,.2a2.65,2.65,0,0,1-1.64,0,.55.55,0,0,0-.6.26.57.57,0,0,0-.06.46h-.07a.55.55,0,0,0-.51.59h0a5.56,5.56,0,0,1-.77-.17A18.32,18.32,0,0,1,71,37.62l-.1-.06,0,0a1.06,1.06,0,0,0,.29-1.06,2.94,2.94,0,0,1-.06-.38l.26,0a6.21,6.21,0,0,0,1.46-.27,2,2,0,0,0,1.29-1.08,2.48,2.48,0,0,0-.07-1.88.55.55,0,0,0-1,.46,1.39,1.39,0,0,1,.06,1,.92.92,0,0,1-.61.47,5.17,5.17,0,0,1-1.22.22,1.35,1.35,0,0,0-1.08.42,1.58,1.58,0,0,0-.11,1.3v0a2.26,2.26,0,0,1-.85-.12.55.55,0,0,0-.45,1l1.56.93a19.43,19.43,0,0,0,4.17,2.4l.51.13a4.72,4.72,0,0,0,.26.65C74.79,41.58,74,41.35,72.71,40.94Zm14.37,4.5a8.88,8.88,0,0,1-1.71-1.21.55.55,0,0,0-.9.32c-1.35-1-4.38-3.15-6.32-4.57a1.77,1.77,0,0,0,1.15-.42,1.12,1.12,0,0,0,.29-.47c.51.61,1.09,1.31,1.3,1.54a31.18,31.18,0,0,0,3.6,2.45c.91.58,1.76,1.13,2.11,1.38a3.15,3.15,0,0,1,.47.5.78.78,0,0,0,.22.52Z" transform="translate(-11.15 -2)"/><path d="M49.68,30s.68-.41,2.46.08l.15,0A.55.55,0,0,0,52.43,29c-2.33-.64-3.3,0-3.4.09a.54.54,0,0,0-.11.75A.56.56,0,0,0,49.68,30Z" transform="translate(-11.15 -2)"/><path d="M51.77,31.06a.55.55,0,0,0-.55-.55H50a.55.55,0,0,0,0,1.1h1.21A.55.55,0,0,0,51.77,31.06Z" transform="translate(-11.15 -2)"/><path d="M46,37.41a12.65,12.65,0,0,1,3.18,0l.14,0a.55.55,0,0,0,.14-1.09,13.56,13.56,0,0,0-3.58,0,.55.55,0,0,0,.12,1.1Z" transform="translate(-11.15 -2)"/><text x="0" y="111" fill="#ffffff" font-size="5px" font-weight="bold" font-family="'Helvetica Neue', Helvetica, Arial-Unicode, Arial, Sans-serif"></text><text x="0" y="116" fill="#ffffff" font-size="5px" font-weight="bold" font-family="'Helvetica Neue', Helvetica, Arial-Unicode, Arial, Sans-serif"></text></svg>